<svg t="1638349809153" class="icon" viewBox="0 0 1024 1024" version="1.1" xmlns="http://www.w3.org/2000/svg" p-id="1903" width="128" height="128"><path d="M518.698667 537.877333l241.493333-241.493333a42.453333 42.453333 0 0 1 60.202667 0.128c16.64 16.682667 16.746667 43.605333 0.128 60.224L518.698667 658.56l-30.186667-30.165333-202.368-202.389334c-16.64-16.64-16.746667-43.52 0.021333-60.309333a42.538667 42.538667 0 0 1 60.309334-0.042667l172.224 172.224zM34.218667 234.666667A142.186667 142.186667 0 0 1 234.666667 34.197333L34.197333 234.666667z m955.584 0L789.333333 34.197333A142.186667 142.186667 0 0 1 989.802667 234.666667zM512 1024C229.226667 1024 0 794.773333 0 512S229.226667 0 512 0s512 229.226667 512 512-229.226667 512-512 512z m0-85.333333c235.648 0 426.666667-191.018667 426.666667-426.666667S747.648 85.333333 512 85.333333 85.333333 276.352 85.333333 512s191.018667 426.666667 426.666667 426.666667z" p-id="1904"></path></svg>
