<svg t="1638434536293" class="icon" viewBox="0 0 1024 1024" version="1.1" xmlns="http://www.w3.org/2000/svg" p-id="2468" width="200" height="200"><path d="M672 896v32H128a32 32 0 0 1-32-32V128a32 32 0 0 1 32-32h768a32 32 0 0 1 32 32v480h-32V128H128v768h544z m-256-512v352h-64V384H192v-64h384v64h-160z m192-224c21.344-3.872 32-3.872 32 0v50.752l-32 0.096-0.192-54.144 32-0.096-31.776 3.424z m32 178.752h-32v-64h32v64-64 64z m0 128h-32v-64h32v64-64 64z m0 128h-32v-64h32v64-64 64z m143.776 123.744h113.536v-64l96 80-96 80v-64h-113.536V864h65.728l-80 96-80-96h62.272v-113.504H640v65.728l-96-80 96-80v62.272h111.776v-111.808h-64l80-96 80 96h-64v111.808z" p-id="2469"></path></svg>
