<svg t="1638178205676" class="icon" viewBox="0 0 1024 1024" version="1.1" xmlns="http://www.w3.org/2000/svg" p-id="4681" width="128" height="128"><path d="M780.8 224h-217.6l-35.2-54.4c-19.2-25.6-51.2-41.6-83.2-41.6H224C169.6 128 128 169.6 128 224v544c0 54.4 41.6 96 96 96h556.8c64 0 115.2-51.2 115.2-115.2V339.2c0-64-51.2-115.2-115.2-115.2zM832 748.8c0 28.8-22.4 51.2-51.2 51.2H224c-19.2 0-32-12.8-32-32V224c0-19.2 12.8-32 32-32h220.8c9.6 0 19.2 6.4 25.6 12.8l35.2 54.4c12.8 19.2 32 28.8 54.4 28.8h217.6c28.8 0 51.2 22.4 51.2 51.2v409.6z" p-id="4682"></path><path d="M390.4 553.6H304c-25.6 0-48 22.4-48 48v86.4c0 25.6 22.4 48 48 48h86.4c25.6 0 48-22.4 48-48v-86.4c0-25.6-22.4-48-48-48z m-16 118.4H320v-54.4h54.4V672zM390.4 320H304c-25.6 0-48 22.4-48 48v86.4c0 25.6 22.4 48 48 48h86.4c25.6 0 48-22.4 48-48v-86.4c0-25.6-22.4-48-48-48z m-16 118.4H320V384h54.4v54.4zM704 384h-160c-19.2 0-32 12.8-32 32s12.8 32 32 32h160c19.2 0 32-12.8 32-32s-12.8-32-32-32zM704 512h-160c-19.2 0-32 12.8-32 32s12.8 32 32 32h160c19.2 0 32-12.8 32-32s-12.8-32-32-32zM704 640h-160c-19.2 0-32 12.8-32 32s12.8 32 32 32h160c19.2 0 32-12.8 32-32s-12.8-32-32-32z" p-id="4683"></path></svg>
