<svg t="1639559752973" class="icon" viewBox="0 0 1024 1024" version="1.1" xmlns="http://www.w3.org/2000/svg" p-id="5293" width="200" height="200"><path d="M288.7 572c48.8-64 111.5-101.3 178.2-106.6 4.8 0.4 9.7 0.6 14.6 0.6C582.1 466 664 384.2 664 283.5S582.1 101 481.5 101 299 182.9 299 283.5c0 51.5 21.4 98 55.8 131.2-5.2 2.5-10.4 5.2-15.5 8-43 23.9-81.5 57.8-114.3 100.8-65.7 86.3-102 200.4-102 321.4v2.7l0.5 39.6h362.2v-80H204.4c6.4-89.2 35.8-171.6 84.3-235.2zM379 283.5C379 227 425 181 481.5 181S584 227 584 283.5c0 54.7-43.2 99.6-97.2 102.3v-1.1h-3.3c-5.1 0-10.2 0.1-15.3 0.4-50.2-6.6-89.2-49.7-89.2-101.6zM826.2 541.2c19.3 0 35-15.7 35-35s-15.7-35-35-35h-60.6v-4.9c0-22.1-17.9-40-40-40s-40 17.9-40 40v224.4c-47.3 16.6-81.3 61.6-81.3 114.5 0 66.9 54.4 121.3 121.3 121.3s121.3-54.4 121.3-121.3c0-52.9-34-97.9-81.3-114.5v-42.9h60.6c19.3 0 35-15.7 35-35s-15.7-35-35-35h-60.6v-36.6h60.6zM725.6 846.5c-22.8 0-41.3-18.5-41.3-41.3s18.5-41.3 41.3-41.3 41.3 18.5 41.3 41.3-18.5 41.3-41.3 41.3z" p-id="5294"></path></svg>
